<svg xmlns="http://www.w3.org/2000/svg" xmlns:xlink="http://www.w3.org/1999/xlink" viewBox="0 0 231.38 266.44"><defs><style>.cls-1{fill:none;}.cls-2{opacity:0.35;}.cls-3{isolation:isolate;}.cls-4{fill:#6da83a;}.cls-5{fill:#437223;}.cls-6{fill:#5a8f31;}.cls-7{fill:#557920;}.cls-8{fill:#70992d;}.cls-9{fill:#87b436;}.cls-10{fill:#916200;}.cls-11{fill:#916201;}.cls-12{fill:#c54f21;}.cls-13{fill:#843108;}.cls-14{fill:#dd9718;}.cls-15{fill:#936402;}.cls-16{fill:#dd9716;}.cls-17{fill:#bb800f;}.cls-18{fill:#936400;}.cls-19{fill:#3b7bb3;}.cls-20{fill:#23527b;}.cls-21{fill:#31689a;}.cls-22{fill:#2c5988;}.cls-23{fill:#36699f;}.cls-24{clip-path:url(#clip-path);}.cls-25{fill:#224a73;}.cls-26{fill:#244c76;}.cls-27{fill:#254e79;}.cls-28{fill:#27507c;}.cls-29{fill:#28527f;}.cls-30{fill:#295481;}</style><clipPath id="clip-path"><path class="cls-1" d="M24.45,91,1.66,78.65C21.54,46,55.25,18.85,94.47,13.28l22.79,12.4C78,31.25,44.33,58.42,24.45,91Z"/></clipPath></defs><title>Asset 2</title><g id="Layer_2" data-name="Layer 2"><g id="Layer_1-2" data-name="Layer 1"><g class="cls-2"><g class="cls-3"><path class="cls-4" d="M231.3,75.64l0,49.51c0,56.85-42.62,109.89-98,125.53l.62-161.33Z"/><polygon class="cls-5" points="133.32 250.67 110.53 238.28 111.15 76.94 133.94 89.34 133.32 250.67"/><polygon class="cls-6" points="133.94 89.34 111.15 76.94 208.51 63.24 231.3 75.64 133.94 89.34"/></g><g class="cls-3"><polygon class="cls-7" points="124.12 252.2 101.32 239.8 101.34 230.77 124.13 243.17 124.12 252.2"/><polygon class="cls-8" points="124.42 86.4 101.63 74 106.84 73.27 129.63 85.67 124.42 86.4"/><polygon class="cls-7" points="124.13 243.17 101.34 230.77 101.63 74 124.42 86.4 124.13 243.17"/><polygon class="cls-9" points="129.63 85.67 129.32 251.47 124.12 252.2 124.13 243.17 124.42 86.4 129.63 85.67"/><polygon class="cls-10" points="119.54 229.68 96.75 217.28 5.13 99.34 27.93 111.74 119.54 229.68"/><polygon class="cls-11" points="124.12 252.18 101.32 239.78 0.27 109.65 23.06 122.05 124.12 252.18"/><polygon class="cls-12" points="23.05 129.57 118.88 252.94 22.79 266.44 23.05 129.57"/><polygon class="cls-13" points="22.79 266.44 0 254.04 0.25 117.17 23.05 129.57 22.79 266.44"/><polygon class="cls-14" points="23.08 113.03 124.13 243.17 124.12 252.18 23.06 122.05 23.08 113.03"/><polygon class="cls-15" points="23.06 122.05 0.27 109.65 0.28 100.63 23.08 113.03 23.06 122.05"/><polygon class="cls-10" points="27.93 111.74 5.13 99.34 0.3 93.12 23.09 105.52 27.93 111.74"/><polygon class="cls-16" points="120.08 91.29 119.54 229.68 27.93 111.74 23.09 105.52 23.09 104.92 120.08 91.29"/><polygon class="cls-17" points="23.09 104.92 0.3 92.52 97.28 78.89 120.08 91.29 23.09 104.92"/><polygon class="cls-18" points="23.09 105.52 0.3 93.12 0.3 92.52 23.09 104.92 23.09 105.52"/></g><g class="cls-3"><polygon class="cls-19" points="231.38 66.22 231.37 71.37 129.63 85.67 124.42 86.4 23.61 100.57 23.61 95.42 231.38 66.22"/><polygon class="cls-20" points="23.61 100.57 0.81 88.17 0.82 83.02 23.61 95.42 23.61 100.57"/><polygon class="cls-21" points="23.61 95.42 0.82 83.02 208.59 53.82 231.38 66.22 23.61 95.42"/></g><g class="cls-3"><polygon class="cls-22" points="220.69 13.89 197.9 1.5 208.54 0 231.33 12.4 220.69 13.89"/><polygon class="cls-22" points="117.27 25.68 94.47 13.28 197.9 1.5 220.69 13.89 117.27 25.68"/><path class="cls-23" d="M117.27,25.68,220.69,13.89l10.64-1.5,0,49.58L24.45,91C44.33,58.42,78,31.25,117.27,25.68Z"/><g class="cls-3"><g class="cls-24"><g class="cls-3"><path class="cls-25" d="M24.45,91,1.66,78.65Q4.17,74.52,7,70.51l22.79,12.4Q27,86.91,24.45,91"/><path class="cls-26" d="M29.77,82.91,7,70.51a152.92,152.92,0,0,1,10.56-13.4l22.79,12.4a152.92,152.92,0,0,0-10.56,13.4"/><path class="cls-27" d="M40.34,69.51,17.54,57.11A149.8,149.8,0,0,1,29.59,44.94l22.79,12.4A149.8,149.8,0,0,0,40.34,69.51"/><path class="cls-28" d="M52.39,57.34,29.59,44.94A141.62,141.62,0,0,1,43.76,33.72l22.79,12.4A141.62,141.62,0,0,0,52.39,57.34"/><path class="cls-29" d="M66.56,46.11,43.76,33.72A129.32,129.32,0,0,1,62.2,23.06L85,35.46A129.32,129.32,0,0,0,66.56,46.11"/><path class="cls-30" d="M85,35.46,62.2,23.06a113,113,0,0,1,32.28-9.78l22.79,12.4A113,113,0,0,0,85,35.46"/></g></g></g></g></g></g></g></svg>